<svg width="47" height="39" viewBox="0 0 47 39" fill="none" xmlns="http://www.w3.org/2000/svg">
<path d="M15.9673 8.96413V4.29372C15.9673 3.57531 16.5495 2.9931 17.2676 2.9931H30.6746C31.3925 2.9931 31.9746 3.57516 31.9746 4.29372V8.96413H15.9673Z" fill="black" fill-opacity="0.01" stroke="#00BCD4" stroke-width="2"/>
<path d="M7.99996 8.96845H39.9688C42.7301 8.96845 44.9687 11.2071 44.9687 13.9685V31.9998C44.9687 34.7612 42.7301 36.9998 39.9688 36.9998H7.99996C5.23852 36.9998 2.9999 34.7612 2.9999 31.9998V13.9685C2.9999 11.2071 5.23852 8.96845 7.99996 8.96845Z" fill="black" fill-opacity="0.01" stroke="#00BCD4" stroke-width="2"/>
<path d="M23.0312 22.9998H24.9687L24.9687 22.9998V27.9998L24.9687 27.9999H23.0312L23.0312 27.9998V22.9998L23.0312 22.9998Z" fill="black" fill-opacity="0.01" stroke="#00BCD4" stroke-width="2"/>
<mask id="path-5-inside-1" fill="white">
<path fill-rule="evenodd" clip-rule="evenodd" d="M45.397 18.9137C45.397 22.9089 35.7542 26.0821 24.0501 26.0821C12.3459 26.0821 1.95957 22.9612 1.95957 18.9663"/>
</mask>
<path fill-rule="evenodd" clip-rule="evenodd" d="M45.397 18.9137C45.397 22.9089 35.7542 26.0821 24.0501 26.0821C12.3459 26.0821 1.95957 22.9612 1.95957 18.9663" fill="black" fill-opacity="0.01"/>
<path d="M43.397 18.9137C43.397 19.0417 43.3229 19.4736 42.467 20.1503C41.6313 20.811 40.2997 21.4915 38.4795 22.0989C34.8598 23.3069 29.7468 24.0821 24.0501 24.0821V28.0821C30.0575 28.0821 35.6179 27.2707 39.7457 25.8932C41.7992 25.208 43.6097 24.346 44.9478 23.2881C46.2657 22.2462 47.397 20.7832 47.397 18.9137H43.397ZM24.0501 24.0821C18.3506 24.0821 13.0385 23.3194 9.21699 22.1148C7.29443 21.5088 5.86212 20.8259 4.95364 20.1548C4.00504 19.4541 3.95957 19.0304 3.95957 18.9663H-0.040429C-0.040429 20.8996 1.21239 22.3641 2.57698 23.3722C3.98168 24.4098 5.87746 25.2562 8.0145 25.9298C12.3122 27.2844 18.0453 28.0821 24.0501 28.0821V24.0821Z" fill="#00BCD4" mask="url(#path-5-inside-1)"/>
</svg>
